<svg xmlns="http://www.w3.org/2000/svg" width="32" height="32" viewBox="0 0 32 32">
  <rect width="32" height="32" rx="7" fill="#ffffff"/>
  <rect x="3" y="7" width="15" height="18" rx="4" fill="#d35230"/>
  <path d="M8 20V12h4.5c2 0 3.2 1 3.2 2.8s-1.2 2.9-3.3 2.9H10v2.3H8zM10 16h2.2c.9 0 1.4-.4 1.4-1.2s-.5-1.2-1.4-1.2H10V16z" fill="#ffffff"/>
  <circle cx="20.5" cy="14" r="5.7" fill="#222222"/>
  <circle cx="15.9" cy="9.4" r="2.6" fill="#222222"/>
  <circle cx="25.1" cy="9.4" r="2.6" fill="#222222"/>
  <ellipse cx="20.5" cy="16.1" rx="3.1" ry="2.5" fill="#f4d0a1"/>
  <circle cx="19.2" cy="13.5" r=".6" fill="#ffffff"/>
  <circle cx="21.8" cy="13.5" r=".6" fill="#ffffff"/>
  <path d="M20.5 15.5l-.9 1h1.8l-.9-1z" fill="#111111"/>
  <circle cx="25.2" cy="18.9" r="2.1" fill="#a259ff"/>
  <circle cx="25.2" cy="23.4" r="2.1" fill="#1abcfe"/>
  <circle cx="20.8" cy="23.4" r="2.1" fill="#0acf83"/>
</svg>
